<svg width="34" height="26" viewBox="0 0 34 26" fill="none" xmlns="http://www.w3.org/2000/svg">
<path d="M11.5084 20.8546L11.3387 19.8497C11.2904 19.5601 11.2285 19.1077 11.1814 18.7941H11.163C11.1135 19.1098 11.0443 19.5754 10.9934 19.8523L10.8109 20.8546H11.5084ZM10.7198 21.5093L10.4994 22.6245H9.68506L10.701 17.9852H11.699L12.6219 22.6245H11.8033L11.5877 21.5093H10.7198Z" fill="#F4F7FE"/>
<path d="M14.4754 20.5521C14.4754 20.4903 14.4754 20.418 14.463 20.3519C14.4306 20.1228 14.3088 19.9166 14.1127 19.9166C13.7765 19.9166 13.6528 20.401 13.6528 20.9674C13.6528 21.6183 13.8291 21.9887 14.101 21.9887C14.2254 21.9887 14.3686 21.925 14.4464 21.652C14.4655 21.5975 14.4752 21.5247 14.4752 21.4395L14.4754 20.5521ZM15.3113 17.8621V21.6623C15.3113 21.9636 15.3266 22.334 15.3388 22.6237H14.6169L14.5698 22.2373H14.5526C14.4312 22.4755 14.1674 22.6782 13.8521 22.6782C13.1607 22.6782 12.8179 21.9152 12.8179 20.9519C12.8179 19.7782 13.3291 19.2074 13.8863 19.2074C14.1778 19.2074 14.3665 19.3502 14.4614 19.5565H14.4755V17.8621H15.3113V17.8621Z" fill="#F4F7FE"/>
<path d="M17.0522 22.0371C17.3712 22.0371 17.4503 21.4358 17.4503 20.938C17.4503 20.4646 17.3712 19.8479 17.0382 19.8479C16.6854 19.8479 16.6113 20.4646 16.6113 20.938C16.6113 21.5093 16.7044 22.0371 17.0449 22.0371H17.0522ZM17.0364 22.6782C16.2662 22.6782 15.783 22.0596 15.783 20.9527C15.783 19.7446 16.4033 19.2074 17.056 19.2074C17.8159 19.2074 18.2923 19.856 18.2923 20.9331C18.2923 22.3169 17.5459 22.6782 17.043 22.6782H17.0364Z" fill="#F4F7FE"/>
<path d="M19.5953 21.4236C19.5953 21.5073 19.6108 21.5859 19.6286 21.6384C19.7124 21.9195 19.8546 21.9887 19.9684 21.9887C20.2917 21.9887 20.4222 21.579 20.4222 20.9238C20.4222 20.3273 20.2844 19.9166 19.9648 19.9166C19.8062 19.9166 19.6727 20.0887 19.6267 20.2736C19.6108 20.3318 19.5955 20.4224 19.5955 20.4848L19.5953 21.4236ZM18.7594 17.8621H19.5953V19.6133H19.6087C19.7733 19.3548 19.9926 19.2072 20.3112 19.2072C20.9412 19.2072 21.2578 19.9237 21.2578 20.8606C21.2578 22.0443 20.7856 22.678 20.1739 22.678C19.8824 22.678 19.6883 22.5488 19.513 22.2213H19.4954L19.4488 22.6237H18.7312C18.7436 22.3451 18.7593 21.9634 18.7593 21.6623V17.8621H18.7594Z" fill="#F4F7FE"/>
<path d="M23.2608 20.6225C23.2653 20.1505 23.1266 19.8197 22.8615 19.8197C22.5591 19.8197 22.4304 20.2625 22.4212 20.6225H23.2608ZM22.4181 21.2136C22.428 21.8217 22.7477 22.0194 23.1445 22.0194C23.3962 22.0194 23.6116 21.9636 23.7709 21.9038L23.8836 22.505C23.6618 22.6005 23.3195 22.6605 22.9913 22.6605C22.0942 22.6605 21.6042 22.0474 21.6042 21.0005C21.6042 19.8768 22.1727 19.2019 22.9147 19.2019C23.6319 19.2019 24.0292 19.7983 24.0292 20.772C24.0292 20.995 24.0201 21.1205 24.0054 21.2183L22.4181 21.2136Z" fill="#F4F7FE"/>
<path d="M18.6829 2.70374H24.0299V15.5051L18.6829 2.70374Z" fill="#F4F7FE"/>
<path d="M14.9156 2.70374H9.56543V15.5051L14.9156 2.70374Z" fill="#F4F7FE"/>
<path d="M16.8 7.42078L20.2065 15.5045H17.9745L16.9555 12.9297H14.4614L16.8 7.42078Z" fill="#F4F7FE"/>
</svg>
