<svg width="35" height="26" viewBox="0 0 35 26" fill="none" xmlns="http://www.w3.org/2000/svg">
<g clip-path="url(#clip0)">
<path fill-rule="evenodd" clip-rule="evenodd" d="M21.1106 15.8346C19.1987 17.2474 16.4324 17.9918 14.0468 17.9918C10.7052 17.9918 7.69363 16.7567 5.40954 14.701C5.23189 14.5403 5.39262 14.3203 5.60411 14.4472C8.06586 15.8769 11.1029 16.7398 14.2414 16.7398C16.3563 16.7398 18.6911 16.2999 20.8314 15.3947C21.1613 15.2509 21.432 15.6062 21.1106 15.8346ZM21.9058 14.9294C21.6604 14.6164 20.29 14.7856 19.6724 14.8533C19.4863 14.8787 19.4525 14.7095 19.6217 14.5995C20.713 13.8297 22.5064 14.0496 22.7179 14.3119C22.9294 14.5741 22.6671 16.3676 21.635 17.222C21.4743 17.3573 21.3305 17.2812 21.3982 17.112C21.635 16.5367 22.1511 15.2424 21.9058 14.9294Z" fill="#F4F7FE"/>
<path fill-rule="evenodd" clip-rule="evenodd" d="M19.7146 9.1684V8.42396C19.7146 8.31398 19.7992 8.23784 19.9007 8.23784H23.2507C23.3607 8.23784 23.4453 8.31398 23.4453 8.42396V9.06688C23.4453 9.17686 23.3522 9.31221 23.1915 9.54062L21.4573 12.0193C22.1002 12.0024 22.7854 12.0954 23.3692 12.4253C23.5045 12.5015 23.5383 12.6115 23.5468 12.713V13.5082C23.5468 13.6181 23.4284 13.745 23.3015 13.6774C22.2694 13.1359 20.9074 13.0767 19.7654 13.6858C19.6469 13.745 19.5285 13.6266 19.5285 13.5166V12.7553C19.5285 12.6368 19.5285 12.4253 19.6554 12.2392L21.6603 9.35451H19.9092C19.8077 9.35451 19.7146 9.27837 19.7146 9.1684ZM7.50741 13.8296H6.49226C6.39074 13.8212 6.31461 13.7535 6.31461 13.6604V8.43241C6.31461 8.3309 6.3992 8.2463 6.50918 8.2463H7.45665C7.55817 8.25476 7.63431 8.32244 7.64276 8.42396V9.10918H7.65968C7.90501 8.44933 8.37029 8.14479 8.9963 8.14479C9.63077 8.14479 10.0284 8.44933 10.316 9.10918C10.5613 8.44933 11.1197 8.14479 11.7203 8.14479C12.1433 8.14479 12.617 8.32244 12.8962 8.72004C13.2176 9.15994 13.15 9.79441 13.15 10.3612V13.6604C13.15 13.762 13.0654 13.8466 12.9554 13.8466H11.9402C11.8387 13.8381 11.7541 13.762 11.7541 13.6604V10.8942C11.7541 10.6742 11.771 10.1243 11.7287 9.91284C11.6526 9.566 11.4242 9.46448 11.1281 9.46448C10.8828 9.46448 10.6205 9.62522 10.519 9.89592C10.4175 10.1582 10.426 10.5981 10.426 10.8942V13.6604C10.426 13.762 10.3414 13.8466 10.2314 13.8466H9.21625C9.11473 13.8381 9.03014 13.762 9.03014 13.6604V10.8942C9.03014 10.3104 9.12319 9.45603 8.40413 9.45603C7.6766 9.45603 7.70198 10.2935 7.70198 10.8942V13.6604C7.71044 13.745 7.61739 13.8296 7.50741 13.8296ZM26.33 8.13633C27.8443 8.13633 28.6564 9.43065 28.6564 11.0803C28.6564 12.6707 27.7512 13.9396 26.33 13.9396C24.8496 13.9396 24.0375 12.6453 24.0375 11.0295C24.0375 9.39681 24.858 8.13633 26.33 8.13633ZM26.3385 9.20224C25.5856 9.20224 25.5433 10.2258 25.5433 10.8603C25.5433 11.4948 25.5348 12.8652 26.33 12.8652C27.1168 12.8652 27.159 11.7655 27.159 11.0972C27.159 10.6573 27.1421 10.1328 27.0068 9.70981C26.8883 9.34605 26.6599 9.20224 26.3385 9.20224ZM30.6106 13.8296H29.5954C29.4939 13.8212 29.4093 13.745 29.4093 13.6435V8.4155C29.4178 8.32244 29.5024 8.2463 29.6039 8.2463H30.5513C30.6359 8.25476 30.7121 8.31398 30.729 8.39012V9.18532H30.7459C31.0335 8.47471 31.4311 8.12787 32.1333 8.12787C32.5901 8.12787 33.0385 8.2886 33.3176 8.74542C33.5799 9.15994 33.5799 9.87055 33.5799 10.3697V13.6604C33.5714 13.7535 33.4868 13.8212 33.3853 13.8212H32.3786C32.2856 13.8127 32.2094 13.745 32.201 13.6604V10.8265C32.201 10.2512 32.2686 9.42219 31.5665 9.42219C31.3212 9.42219 31.0928 9.59138 30.9743 9.83671C30.8305 10.1582 30.8136 10.4712 30.8136 10.8265V13.6435C30.8136 13.745 30.7205 13.8296 30.6106 13.8296ZM17.0498 11.3341C17.0498 11.7317 17.0583 12.0616 16.8553 12.4169C16.6945 12.7045 16.4323 12.8822 16.1531 12.8822C15.764 12.8822 15.5356 12.5861 15.5356 12.1462C15.5356 11.2748 16.3139 11.1226 17.0498 11.1226V11.3341ZM18.0734 13.8212C18.0058 13.8804 17.9127 13.8889 17.8366 13.8466C17.4982 13.5674 17.439 13.432 17.2529 13.1698C16.6945 13.7366 16.2969 13.9142 15.5779 13.9142C14.7234 13.9142 14.0551 13.3897 14.0551 12.3238C14.0551 11.4948 14.5035 10.9365 15.138 10.6573C15.6878 10.412 16.4661 10.3697 17.0498 10.302V10.1666C17.0498 9.9213 17.0668 9.64214 16.9229 9.43065C16.796 9.24454 16.5592 9.1684 16.3477 9.1684C15.9585 9.1684 15.6117 9.37143 15.5271 9.77749C15.5102 9.87055 15.4425 9.95514 15.3495 9.9636L14.3597 9.85363C14.2751 9.83671 14.182 9.76903 14.2074 9.64214C14.4358 8.44087 15.5186 8.08557 16.483 8.08557C16.9822 8.08557 17.6251 8.22092 18.0142 8.59315C18.5133 9.05842 18.4626 9.67597 18.4626 10.3443V11.9347C18.4626 12.4084 18.6572 12.6199 18.8433 12.8822C18.9109 12.9752 18.9194 13.0852 18.8348 13.1529C18.6487 13.3221 18.2849 13.6435 18.0734 13.8212ZM3.70059 11.3341C3.70059 11.7317 3.70905 12.0616 3.50602 12.4169C3.34529 12.7045 3.0915 12.8822 2.80388 12.8822C2.41473 12.8822 2.18633 12.5861 2.18633 12.1462C2.18633 11.2748 2.96461 11.1226 3.70059 11.1226V11.3341ZM4.73266 13.8212C4.66499 13.8804 4.57193 13.8889 4.49579 13.8466C4.15741 13.5674 4.09819 13.432 3.91208 13.1698C3.35375 13.7366 2.95615 13.9142 2.23708 13.9142C1.38266 13.9142 0.714355 13.3897 0.714355 12.3238C0.714355 11.4948 1.16271 10.9365 1.79718 10.6573C2.34706 10.412 3.12534 10.3697 3.70905 10.302V10.1666C3.70905 9.9213 3.72597 9.64214 3.58216 9.43065C3.45526 9.24454 3.2184 9.1684 3.00691 9.1684C2.61776 9.1684 2.27092 9.37143 2.18633 9.77749C2.16941 9.87055 2.10173 9.95514 2.00867 9.9636L1.0189 9.85363C0.934305 9.83671 0.841249 9.76903 0.866628 9.64214C1.09504 8.44087 2.17787 8.08557 3.14226 8.08557C3.64138 8.08557 4.2843 8.22092 4.67345 8.59315C5.17256 9.05842 5.1218 9.67597 5.1218 10.3443V11.9347C5.1218 12.4084 5.31638 12.6199 5.50249 12.8822C5.57016 12.9752 5.57862 13.0852 5.50249 13.1529C5.30792 13.3221 4.93569 13.6435 4.73266 13.8212Z" fill="#F4F7FE"/>
</g>
<defs>
<clipPath id="clip0">
<rect width="33.8384" height="25.3788" fill="white" transform="translate(0.232178 0.353516)"/>
</clipPath>
</defs>
</svg>
