<svg width="35" height="27" viewBox="0 0 35 27" fill="none" xmlns="http://www.w3.org/2000/svg">
<g clip-path="url(#clip0)">
<path d="M2.93742 16.4396H1.69386V13.3349H0.8479V12.3198H1.69386V11.6007C1.69386 10.7463 2.06608 10.1372 3.30964 10.1372C3.57189 10.1372 3.98641 10.188 3.98641 10.188V11.127H3.55497C3.11507 11.127 2.93742 11.2623 2.93742 11.6346V12.3198H3.96949L3.87644 13.3349H2.93742V16.4396ZM5.79676 12.2352C5.77985 12.2352 5.76293 12.2352 5.73755 12.2352C4.57858 12.2352 4.05409 13.1065 4.05409 14.3416C4.05409 15.8982 4.73932 16.5157 5.74601 16.5157C6.32126 16.5157 6.70194 16.2704 6.93035 15.8221V16.4396H8.1147V12.3198H6.93035V12.9542C6.7527 12.5482 6.36356 12.2436 5.79676 12.2352ZM6.10131 13.208C6.58351 13.208 6.87959 13.5464 6.87959 14.1217V14.7138C6.87959 15.103 6.64272 15.5598 6.10131 15.5598C5.27227 15.5598 5.29765 14.6715 5.29765 14.367C5.29765 13.3688 5.73755 13.208 6.10131 13.208ZM8.60535 14.3755C8.60535 13.8763 8.57997 12.2352 10.7118 12.2352C11.5662 12.2352 11.93 12.5059 11.93 12.5059L11.6423 13.3942C11.6423 13.3942 11.287 13.1996 10.8218 13.1996C10.2296 13.1996 9.84891 13.5464 9.84891 14.1555V14.5954C9.84891 15.1791 10.2127 15.5683 10.8218 15.5683C11.2447 15.5683 11.6339 15.3737 11.6339 15.3737L11.9215 16.245C11.9215 16.245 11.5916 16.5157 10.7203 16.5157C8.68995 16.5242 8.60535 15.0522 8.60535 14.3755ZM18.8753 12.2436C20.0343 12.2436 20.5672 13.115 20.5672 14.3501C20.5672 15.9066 19.882 16.5242 18.8753 16.5242C18.3 16.5242 17.8686 16.2789 17.6402 15.8305V16.4481H16.4728V10.2726L17.7163 10.1626V12.9119C17.894 12.4128 18.4862 12.2436 18.8753 12.2436ZM18.5285 13.208C18.0463 13.208 17.7163 13.5464 17.7163 14.1217V14.7138C17.7163 15.103 17.9447 15.5598 18.5285 15.5598C19.3575 15.5598 19.3321 14.6715 19.3321 14.367C19.3321 13.3688 18.8922 13.208 18.5285 13.208ZM14.0872 12.2436C12.7759 12.2436 12.0822 12.9543 12.0822 14.2317V14.4685C12.0822 16.1181 13.0551 16.5411 14.2141 16.5411C15.3392 16.5411 15.8468 16.2281 15.8468 16.2281L15.6184 15.3906C15.6184 15.3906 15.0177 15.6444 14.3663 15.6444C13.6896 15.6444 13.3935 15.4752 13.3173 14.8154H15.9483V14.1386C15.9483 12.7597 15.17 12.2436 14.0872 12.2436ZM14.1125 13.0811C14.5694 13.0811 14.857 13.3603 14.8401 14.0032H13.3089C13.3427 13.3265 13.6642 13.0811 14.1125 13.0811ZM23.0459 12.2352C21.7008 12.2352 20.9902 12.9965 20.9902 14.3501C20.9902 16.2112 22.2084 16.5157 23.0459 16.5157C24.2725 16.5157 25.0846 15.8559 25.0846 14.367C25.0846 12.8189 24.171 12.2352 23.0459 12.2352ZM23.029 13.2165C23.6211 13.2165 23.858 13.6564 23.858 14.164V14.5954C23.858 15.2045 23.5281 15.5598 23.029 15.5598C22.5637 15.5598 22.2338 15.2299 22.2338 14.5954V14.164C22.2338 13.4872 22.6229 13.2165 23.029 13.2165ZM27.5633 12.2352C26.2182 12.2352 25.5076 12.9965 25.5076 14.3501C25.5076 16.2112 26.7258 16.5157 27.5633 16.5157C28.7899 16.5157 29.6021 15.8559 29.6021 14.367C29.6021 12.8189 28.6884 12.2352 27.5633 12.2352ZM27.5464 13.2165C28.1386 13.2165 28.3754 13.6564 28.3754 14.164V14.5954C28.3754 15.2045 28.0455 15.5598 27.5464 15.5598C27.0811 15.5598 26.7512 15.2299 26.7512 14.5954V14.164C26.7512 13.4872 27.1403 13.2165 27.5464 13.2165ZM30.0758 16.4396V10.2641L31.3194 10.1541V14.2909L32.5545 12.3198H33.8742L32.5883 14.367L33.9249 16.4396H32.6052L31.3194 14.4262V16.4396H30.0758Z" fill="#F4F7FE"/>
</g>
<defs>
<clipPath id="clip0">
<rect width="33.8384" height="25.3788" fill="white" transform="translate(0.4646 0.646362)"/>
</clipPath>
</defs>
</svg>
