<svg width="35" height="13" viewBox="0 0 35 13" fill="none" xmlns="http://www.w3.org/2000/svg">
<g clip-path="url(#clip0)">
<path d="M9.32175 4.47795H5.51975V5.60617H8.21617C8.08298 7.18818 6.76671 7.8629 5.52431 7.8629C3.93475 7.8629 2.54764 6.61226 2.54764 4.85927C2.54764 3.15162 3.86988 1.83651 5.52782 1.83651C6.80689 1.83651 7.56058 2.65185 7.56058 2.65185L8.35059 1.83382C8.35059 1.83382 7.33667 0.705078 5.48746 0.705078C3.13269 0.705078 1.31104 2.69245 1.31104 4.83909C1.31104 6.94257 3.0246 8.99364 5.54747 8.99364C7.76636 8.99364 9.3906 7.47363 9.3906 5.22585C9.3906 4.7517 9.32175 4.4776 9.32175 4.4776V4.47795Z" fill="#F4F7FE"/>
<path d="M12.4362 3.66101C10.8761 3.66101 9.75806 4.88071 9.75806 6.30315C9.75806 7.74665 10.8425 8.98899 12.4545 8.98899C13.9138 8.98899 15.1093 7.87364 15.1093 6.33421C15.1093 4.5697 13.7186 3.66101 12.4362 3.66101ZM12.4517 4.7074C13.2188 4.7074 13.9458 5.32766 13.9458 6.32708C13.9458 7.30532 13.2219 7.94325 12.4482 7.94325C11.5979 7.94325 10.9272 7.26227 10.9272 6.3193C10.9272 5.39657 11.5896 4.7074 12.4517 4.7074Z" fill="#F4F7FE"/>
<path d="M18.2606 3.66101C16.7006 3.66101 15.5825 4.88071 15.5825 6.30315C15.5825 7.74665 16.667 8.98899 18.2789 8.98899C19.7382 8.98899 20.9337 7.87364 20.9337 6.33421C20.9338 4.5697 19.5431 3.66101 18.2606 3.66101ZM18.2761 4.7074C19.0434 4.7074 19.7704 5.32766 19.7704 6.32708C19.7704 7.30532 19.0464 7.94325 18.2726 7.94325C17.4224 7.94325 16.7517 7.26227 16.7517 6.3193C16.7517 5.39657 17.4141 4.7074 18.2761 4.7074Z" fill="#F4F7FE"/>
<path d="M23.9736 3.6637C22.5416 3.6637 21.416 4.91785 21.416 6.32555C21.416 7.92903 22.7209 8.99232 23.9489 8.99232C24.7081 8.99232 25.1119 8.69096 25.4099 8.34503V8.8703C25.4099 9.78935 24.8519 10.3398 24.0096 10.3398C23.1959 10.3398 22.7877 9.73478 22.6459 9.39142L21.6221 9.81948C21.9853 10.5875 22.7164 11.3884 24.0181 11.3884C25.4419 11.3884 26.527 10.4916 26.527 8.61083V3.82391H25.4101V4.27519C25.0666 3.9051 24.5969 3.66375 23.9736 3.6637ZM24.0772 4.70804C24.7793 4.70804 25.5003 5.30753 25.5003 6.33123C25.5003 7.37182 24.7808 7.94529 24.0617 7.94529C23.2983 7.94529 22.588 7.32544 22.588 6.34111C22.588 5.31836 23.3257 4.70804 24.0772 4.70804Z" fill="#F4F7FE"/>
<path d="M31.4932 3.65747C30.1424 3.65747 29.0083 4.73217 29.0083 6.31792C29.0083 7.99592 30.2724 8.99107 31.623 8.99107C32.7501 8.99107 33.4419 8.37443 33.8546 7.82196L32.9337 7.20919C32.6948 7.58003 32.2953 7.94252 31.6286 7.94252C30.8796 7.94252 30.5353 7.53242 30.3219 7.13513L33.894 5.65297L33.7085 5.2186C33.3635 4.36799 32.5584 3.65759 31.4933 3.65759L31.4932 3.65747ZM31.5397 4.68204C32.0264 4.68204 32.3767 4.94081 32.5255 5.25106L30.1401 6.24814C30.0372 5.4762 30.7685 4.68204 31.5397 4.68204Z" fill="#F4F7FE"/>
<path d="M27.3054 8.83291H28.4787V0.980713H27.3054V8.83291Z" fill="#F4F7FE"/>
</g>
<defs>
<clipPath id="clip0">
<rect width="33.8384" height="11.9783" fill="white" transform="translate(0.696777 0.0908203)"/>
</clipPath>
</defs>
</svg>
