<svg width="35" height="35" viewBox="0 0 35 35" fill="none" xmlns="http://www.w3.org/2000/svg">
<g clip-path="url(#clip0)">
<path d="M17.0028 26.5813C-0.422108 28.1887 0.814316 18.1519 4.6251 13.9954V13.0889C1.82074 15.5483 0.30099 18.6604 1.17643 22.3365C3.30468 31.3108 20.8715 29.9995 29.0323 25.517V22.9534C26.0482 24.7313 21.1136 26.1999 17.0028 26.5813Z" fill="#F4F7FE"/>
<path d="M34.6176 13.0275C33.0315 5.28404 17.9964 4.79311 8.30469 10.6927V11.3444C17.9854 6.36733 31.7171 6.3976 32.9673 13.5308C33.3867 15.8904 32.0576 18.3488 29.6831 19.7642V21.6152C32.5395 20.5674 35.4694 17.1785 34.6176 13.0275Z" fill="#F4F7FE"/>
<path d="M28.9894 22.9782V24.3553C20.6464 28.9379 1.7552 30.4243 0.947177 19.7665C0.893974 20.5894 0.964361 21.4462 1.17638 22.3366C3.30463 31.3109 20.8714 29.9996 29.0322 25.5171V22.9534C29.0182 22.9616 29.0035 22.9699 28.9894 22.9782Z" fill="#F4F7FE"/>
<path d="M29.683 19.7641V21.6151C29.969 21.5102 30.2557 21.3814 30.5394 21.2311V20.4431C30.5394 20.1839 30.6684 19.9414 30.884 19.7974C33.0414 18.3565 34.2226 16.0241 33.8238 13.781C33.3568 11.1163 31.1479 9.44288 28.0593 8.65125C30.6957 9.5202 32.5446 11.1196 32.9672 13.5308C33.3867 15.8903 32.0576 18.3488 29.683 19.7641Z" fill="#F4F7FE"/>
<path d="M28.408 11.8998H26.8221C26.7759 11.8998 26.7385 11.9372 26.7385 11.9834V19.708C26.7385 20.6011 27.1599 21.3806 28.3985 21.5358C28.448 21.542 28.4917 21.5024 28.4917 21.4525V11.9834C28.4917 11.9372 28.4542 11.8998 28.408 11.8998Z" fill="#F4F7FE"/>
<path d="M7.53281 14.7507H5.94366C5.89746 14.7507 5.86006 14.7881 5.86006 14.8343L5.85913 19.8522C5.85913 20.7485 6.28185 21.5272 7.52336 21.6801C7.57279 21.6862 7.61641 21.6467 7.61641 21.5969V14.8343C7.61641 14.7881 7.57901 14.7507 7.53281 14.7507Z" fill="#F4F7FE"/>
<path d="M5.86011 12.2213V13.7159C5.86011 13.7621 5.89751 13.7995 5.94371 13.7995H7.52737C7.57357 13.7995 7.61098 13.7621 7.61098 13.7159V12.2213C7.61098 12.1751 7.57357 12.1377 7.52737 12.1377H5.94371C5.89751 12.1376 5.86011 12.1751 5.86011 12.2213Z" fill="#F4F7FE"/>
<path d="M18.1159 21.6095C16.6968 21.6095 16.0962 20.6232 16.0962 19.6516V12.9617C16.0962 12.9155 16.1336 12.8781 16.1798 12.8781H17.7506C17.7968 12.8781 17.8342 12.9155 17.8342 12.9617V14.6671C17.8342 14.7133 17.8716 14.7507 17.9178 14.7507H19.0593C19.1055 14.7507 19.1429 14.7881 19.1429 14.8343V16.0708C19.1429 16.117 19.1055 16.1544 19.0593 16.1544H17.9178C17.8716 16.1544 17.8342 16.1918 17.8342 16.238V19.5442C17.8342 19.9402 18.0222 20.161 18.4352 20.161H19.0593C19.1055 20.161 19.1429 20.1984 19.1429 20.2446V21.5257C19.1429 21.5719 19.1055 21.6094 19.0593 21.6094H18.1159" fill="#F4F7FE"/>
<path d="M21.3138 18.7236C21.3138 19.6131 21.87 20.2666 22.854 20.2666C23.5915 20.2666 23.9713 20.0709 24.3925 19.6692C24.4249 19.6382 24.4759 19.6375 24.5084 19.6684L25.4611 20.5759C25.4955 20.6087 25.4958 20.6641 25.4615 20.6971C24.7916 21.3409 24.0757 21.7297 22.8412 21.7297C21.1779 21.7297 19.5845 20.8219 19.5845 18.1756C19.5845 15.9132 20.9769 14.6344 22.8026 14.6344C24.6586 14.6344 25.7252 16.1315 25.7252 18.0967V18.6399C25.7252 18.6861 25.6878 18.7236 25.6416 18.7236L21.3138 18.7236ZM21.4809 16.7915C21.3795 17.0146 21.3359 17.1934 21.3187 17.4485C21.3155 17.497 21.3536 17.5386 21.4022 17.5386H23.9034C23.9515 17.5386 23.9905 17.4979 23.9868 17.4499C23.843 15.5919 21.9247 15.8441 21.4809 16.7915Z" fill="#F4F7FE"/>
<path d="M12.3367 16.1546C12.8463 16.1546 13.0581 16.4065 13.0581 16.8155V21.536C13.0581 21.5822 13.0955 21.6197 13.1417 21.6197H14.7128C14.7589 21.6197 14.7964 21.5822 14.7964 21.536V16.8053C14.7964 15.8298 14.2766 14.7526 12.7502 14.7526L9.24309 14.7509C9.1969 14.7509 9.15942 14.7883 9.15942 14.8345V21.536C9.15942 21.5822 9.19683 21.6197 9.24303 21.6197H10.8147C10.8609 21.6197 10.8983 21.5822 10.8983 21.536V16.2382C10.8983 16.192 10.9357 16.1546 10.9819 16.1546H12.3367Z" fill="#F4F7FE"/>
<path d="M27.6237 19.708V11.9834C27.6237 11.9372 27.6611 11.8998 27.7073 11.8998H26.8221C26.7759 11.8998 26.7385 11.9372 26.7385 11.9834V19.708C26.7385 20.6011 27.1599 21.3806 28.3985 21.5358C28.448 21.542 28.4917 21.5024 28.4917 21.4525V21.3049C27.8584 20.9771 27.6237 20.3743 27.6237 19.708Z" fill="#F4F7FE"/>
<path d="M6.74428 19.8522L6.74521 14.8343C6.74521 14.7882 6.78262 14.7507 6.82881 14.7507H5.94366C5.89746 14.7507 5.86006 14.7881 5.86006 14.8343L5.85913 19.8522C5.85913 20.7485 6.28191 21.5272 7.52336 21.6801C7.57286 21.6862 7.61648 21.6467 7.61648 21.5969V21.4516C6.98016 21.125 6.74428 20.5214 6.74428 19.8522Z" fill="#F4F7FE"/>
<path d="M6.74526 13.7159V12.2213C6.74526 12.1751 6.78267 12.1377 6.82886 12.1377H5.94371C5.89751 12.1377 5.86011 12.1751 5.86011 12.2213V13.7159C5.86011 13.7621 5.89751 13.7995 5.94371 13.7995H6.82886C6.78267 13.7995 6.74526 13.7621 6.74526 13.7159Z" fill="#F4F7FE"/>
<path d="M16.9816 19.6517V12.9618C16.9816 12.9156 17.019 12.8782 17.0652 12.8782H16.18C16.1338 12.8782 16.0964 12.9156 16.0964 12.9618V19.6517C16.0964 20.6233 16.6969 21.6096 18.1161 21.6096H19.0012C17.5821 21.6095 16.9816 20.6233 16.9816 19.6517Z" fill="#F4F7FE"/>
<path d="M20.4698 18.1757C20.4698 16.1073 21.6339 14.8619 23.2285 14.6633C23.0915 14.645 22.9499 14.6345 22.8028 14.6345C20.9771 14.6345 19.5847 15.9133 19.5847 18.1757C19.5847 20.822 21.1782 21.7298 22.8414 21.7298C23.0052 21.7298 23.1593 21.7225 23.3059 21.7091C21.8045 21.5627 20.4698 20.5975 20.4698 18.1757Z" fill="#F4F7FE"/>
<path d="M10.0446 21.536V14.8345C10.0446 14.7891 10.0809 14.7525 10.126 14.7513L9.24309 14.7509C9.1969 14.7509 9.15942 14.7883 9.15942 14.8345V21.536C9.15942 21.5822 9.19683 21.6197 9.24303 21.6197H10.1282C10.082 21.6197 10.0446 21.5822 10.0446 21.536Z" fill="#F4F7FE"/>
</g>
<defs>
<clipPath id="clip0">
<rect width="33.8384" height="33.8384" fill="white" transform="translate(0.929199 0.924194)"/>
</clipPath>
</defs>
</svg>
