<svg width="34" height="35" viewBox="0 0 34 35" fill="none" xmlns="http://www.w3.org/2000/svg">
<g clip-path="url(#clip0)">
<path d="M33.9793 14.5756C33.2813 10.5504 16.4429 11.1812 5.85613 15.6348L5.0148 16.0039C1.81952 17.469 -0.0586451 19.0965 0.182321 20.4945C0.884534 24.548 17.8755 23.8654 28.4005 19.395L29.6556 18.8256C32.54 17.4239 34.2075 15.898 33.9793 14.5756Z" fill="#F4F7FE"/>
<path d="M1.92064 20.4946C1.67967 19.0966 3.55783 17.469 6.75311 16.004L7.59445 15.6349C12.8543 13.4223 20.1807 12.0236 26.0617 11.8958C19.7776 11.7512 11.5299 13.2481 5.85613 15.6349L5.0148 16.004C1.81952 17.4691 -0.0586451 19.0966 0.182321 20.4946C0.500217 22.3296 4.38562 23.293 9.8336 23.1745C5.3126 23.0704 2.20357 22.1278 1.92064 20.4946Z" fill="#F4F7FE"/>
<path d="M28.4865 17.3914V17.7343C28.4865 17.7906 28.5321 17.8362 28.5884 17.8362H28.7837C28.8213 17.8362 28.8517 17.8667 28.8517 17.9042V18.3557C28.8535 18.4021 28.8507 18.4521 28.8431 18.492C28.828 18.5891 28.7368 18.7533 28.4776 18.7533C28.2194 18.7533 28.1299 18.5891 28.1138 18.492C28.1072 18.4521 28.1041 18.4022 28.1041 18.3557V16.716C28.1041 16.6575 28.1083 16.5945 28.1206 16.547C28.1382 16.4596 28.2154 16.2868 28.4756 16.2868C28.7486 16.2868 28.8164 16.4682 28.8315 16.547C28.8422 16.5983 28.8432 16.6851 28.8432 16.6851V16.7917C28.8432 16.8425 28.8844 16.8837 28.9352 16.8837H29.6263C29.6898 16.8837 29.7414 16.8321 29.7414 16.7686V16.766C29.7414 16.766 29.7451 16.6431 29.7345 16.5285C29.6674 15.8555 29.1159 15.6434 28.4828 15.6434C27.8494 15.6434 27.3093 15.8579 27.2308 16.5285C27.2239 16.5904 27.2129 16.7009 27.2129 16.766V18.2748C27.2129 18.3398 27.2146 18.3907 27.2266 18.5112C27.2827 19.1374 27.8029 19.3763 28.4005 19.3953L29.6557 18.8259C29.697 18.7343 29.7245 18.6297 29.7362 18.5112C29.7459 18.3907 29.7469 18.3398 29.7493 18.2748V17.3955C29.7493 17.3499 29.7124 17.3129 29.6668 17.3129H28.5651C28.5217 17.3129 28.4865 17.348 28.4865 17.3914Z" fill="#343A40"/>
<path d="M7.34292 18.0601C7.19316 17.3066 5.83929 17.0842 5.73771 16.6639C5.72119 16.5919 5.72496 16.5155 5.73428 16.476C5.75939 16.3614 5.83619 16.2339 6.0603 16.2339C6.26994 16.2339 6.39287 16.3647 6.39287 16.5603V16.7036C6.39287 16.7469 6.42796 16.782 6.47132 16.782H7.17036C7.23242 16.782 7.28271 16.7317 7.28271 16.6697V16.5294C7.28271 15.75 6.58321 15.6254 6.07821 15.6254C6.00214 15.6254 5.92779 15.6281 5.85615 15.635L5.01481 16.0041C4.92288 16.1149 4.85957 16.2519 4.83201 16.4224C4.80583 16.5834 4.80167 16.7246 4.83921 16.906C4.9934 17.6389 6.26194 17.852 6.44647 18.3153C6.4809 18.4021 6.46986 18.5123 6.45301 18.5801C6.42373 18.7013 6.34317 18.8224 6.10465 18.8224C5.88225 18.8224 5.74835 18.6923 5.74835 18.4964L5.74723 18.2227C5.7471 18.1831 5.71498 18.1511 5.67539 18.1511H4.88627C4.83313 18.1511 4.79004 18.1942 4.79004 18.2474V18.4255C4.79004 19.2272 5.41625 19.4685 6.08647 19.4685C6.73158 19.4685 7.26136 19.2479 7.34741 18.6475C7.39044 18.3383 7.35806 18.1359 7.34292 18.0601Z" fill="#343A40"/>
<path d="M9.88589 19.2523L9.43574 16.177C9.43145 16.1478 9.38935 16.1478 9.38499 16.177L8.92215 19.2627C8.91667 19.2995 8.88501 19.3266 8.8478 19.3266H8.02035C7.98327 19.3266 7.95525 19.293 7.96192 19.2565L8.58965 15.8495C8.60142 15.7857 8.65707 15.7394 8.7219 15.7394H10.102C10.1563 15.7394 10.2029 15.7782 10.2128 15.8316L10.8406 19.2535C10.8476 19.2916 10.8183 19.3267 10.7796 19.3267H9.97174C9.92871 19.3266 9.89217 19.295 9.88589 19.2523Z" fill="#343A40"/>
<path d="M14.6379 19.2097L14.6156 16.175C14.6154 16.1554 14.5871 16.1529 14.5836 16.1722L14.0142 19.2528C14.0063 19.2955 13.969 19.3266 13.9255 19.3266H13.2076C13.1427 19.3266 13.087 19.2803 13.0752 19.2164L12.5165 16.1899C12.5126 16.1686 12.4812 16.1714 12.4811 16.193L12.4586 19.2555C12.4583 19.2948 12.4263 19.3266 12.3869 19.3266H11.6605C11.6087 19.3266 11.567 19.284 11.5681 19.2323L11.6416 15.8447C11.6429 15.7861 11.6907 15.7393 11.7494 15.7393H12.9993C13.0568 15.7393 13.1057 15.781 13.1149 15.8378L13.5143 18.3255C13.5207 18.3653 13.5779 18.3653 13.5843 18.3255L13.985 15.83C13.9934 15.7777 14.0385 15.7393 14.0914 15.7393H15.3761C15.4188 15.7393 15.4537 15.7734 15.4547 15.8161L15.5304 19.2031C15.5319 19.2709 15.4774 19.3267 15.4096 19.3267H14.7557C14.691 19.3266 14.6384 19.2744 14.6379 19.2097Z" fill="#343A40"/>
<path d="M18.9357 18.637C18.8513 19.2309 18.325 19.4488 17.6871 19.4488C17.022 19.4488 16.4041 19.2102 16.4041 18.4174V18.2183C16.4041 18.177 16.4376 18.1434 16.479 18.1434H17.2628C17.3117 18.1434 17.3515 18.1831 17.3515 18.232V18.4877C17.3515 18.6811 17.4854 18.8095 17.7071 18.8095C17.9443 18.8095 18.0238 18.69 18.051 18.5709C18.0676 18.5048 18.0765 18.394 18.0445 18.3072C17.8627 17.849 16.607 17.6384 16.4541 16.9131C16.4145 16.7337 16.4204 16.5929 16.4452 16.4349C16.5399 15.8542 17.0527 15.6455 17.6807 15.6455C18.1805 15.6455 18.8693 15.7667 18.8693 16.5402V16.6901C18.8693 16.7447 18.825 16.789 18.7704 16.789H18.0808C18.0303 16.789 17.9895 16.7482 17.9895 16.6977V16.5701C17.9895 16.377 17.8687 16.2475 17.6628 16.2475C17.4418 16.2475 17.365 16.3728 17.3388 16.4875C17.3306 16.5264 17.3268 16.6018 17.3423 16.6734C17.4438 17.0879 18.7819 17.3116 18.9292 18.0559C18.9452 18.1306 18.9756 18.3303 18.9357 18.637Z" fill="#343A40"/>
<path d="M22.2825 18.548C22.2192 19.2182 21.6946 19.4354 21.0374 19.4354C20.3809 19.4354 19.8559 19.2182 19.794 18.548C19.7899 18.5121 19.785 18.3772 19.786 18.3112V15.8771C19.786 15.801 19.8477 15.7394 19.9238 15.7394H20.5631C20.632 15.7394 20.688 15.7953 20.688 15.8642V18.3934C20.6862 18.4392 20.688 18.4919 20.6969 18.5298C20.7141 18.6186 20.7912 18.7901 21.0373 18.7901C21.2862 18.7901 21.3609 18.6186 21.3799 18.5298C21.3878 18.4919 21.3895 18.4392 21.3878 18.3934V15.8494C21.3878 15.7886 21.437 15.7394 21.4978 15.7394H22.1669C22.2347 15.7394 22.2897 15.7944 22.2897 15.8622V18.3112C22.2936 18.3772 22.288 18.5121 22.2825 18.548Z" fill="#343A40"/>
<path d="M26.1638 19.2891H25.0891C25.0407 19.2891 24.9981 19.2574 24.984 19.2111L24.1645 16.5061C24.1548 16.4741 24.1077 16.4815 24.1083 16.5148L24.1537 19.1737C24.1548 19.237 24.1038 19.289 24.0404 19.289H23.3923C23.3303 19.289 23.28 19.2387 23.28 19.1767V15.8586C23.28 15.7926 23.3335 15.7392 23.3994 15.7392H24.4864C24.556 15.7392 24.6174 15.7852 24.6368 15.8521L25.4046 18.4923C25.4108 18.5134 25.4419 18.5087 25.4416 18.4868L25.3981 15.8613C25.397 15.7942 25.4511 15.7391 25.5182 15.7391H26.1867C26.237 15.7391 26.2777 15.7799 26.2777 15.8301V19.1752C26.2775 19.2382 26.2266 19.2891 26.1638 19.2891Z" fill="#343A40"/>
</g>
<defs>
<clipPath id="clip0">
<rect width="33.8384" height="33.8384" fill="white" transform="translate(0.161621 0.616089)"/>
</clipPath>
</defs>
</svg>
